<svg width="25px" height="25px" viewBox="0 0 25 25" version="1.1" xmlns="http://www.w3.org/2000/svg" xmlns:xlink="http://www.w3.org/1999/xlink">
        <path d="M16.6666667,12.5 C16.6666667,11.3498264 16.2597656,10.3678385 15.4459635,9.55403646 C14.6321615,8.74023437 13.6501736,8.33333333 12.5,8.33333333 C11.3498264,8.33333333 10.3678385,8.74023437 9.55403646,9.55403646 C8.74023437,10.3678385 8.33333333,11.3498264 8.33333333,12.5 C8.33333333,13.6501736 8.74023437,14.6321615 9.55403646,15.4459635 C10.3678385,16.2597656 11.3498264,16.6666667 12.5,16.6666667 C13.6501736,16.6666667 14.6321615,16.2597656 15.4459635,15.4459635 C16.2597656,14.6321615 16.6666667,13.6501736 16.6666667,12.5 Z M18.9127604,12.5 C18.9127604,14.2795139 18.2888455,15.7931858 17.0410156,17.0410156 C15.7931858,18.2888455 14.2795139,18.9127604 12.5,18.9127604 C10.7204861,18.9127604 9.20681424,18.2888455 7.95898438,17.0410156 C6.71115451,15.7931858 6.08723958,14.2795139 6.08723958,12.5 C6.08723958,10.7204861 6.71115451,9.20681424 7.95898438,7.95898438 C9.20681424,6.71115451 10.7204861,6.08723958 12.5,6.08723958 C14.2795139,6.08723958 15.7931858,6.71115451 17.0410156,7.95898438 C18.2888455,9.20681424 18.9127604,10.7204861 18.9127604,12.5 Z M20.6705729,5.82682292 C20.6705729,6.23914931 20.5240885,6.59179688 20.2311198,6.88476563 C19.938151,7.17773438 19.5855035,7.32421875 19.1731771,7.32421875 C18.7608507,7.32421875 18.4082031,7.17773438 18.1152344,6.88476563 C17.8222656,6.59179688 17.6757812,6.23914931 17.6757812,5.82682292 C17.6757812,5.41449653 17.8222656,5.06184896 18.1152344,4.76888021 C18.4082031,4.47591146 18.7608507,4.32942708 19.1731771,4.32942708 C19.5855035,4.32942708 19.938151,4.47591146 20.2311198,4.76888021 C20.5240885,5.06184896 20.6705729,5.41449653 20.6705729,5.82682292 Z M12.5,2.24609375 C12.4240451,2.24609375 12.0090061,2.24338108 11.2548828,2.23795573 C10.5007595,2.23253038 9.92838542,2.23253038 9.53776042,2.23795573 C9.14713542,2.24338108 8.62358941,2.25965712 7.9671224,2.28678385 C7.31065538,2.31391059 6.75184462,2.36816406 6.2906901,2.44954427 C5.82953559,2.53092448 5.44162326,2.6312934 5.12695312,2.75065104 C4.5844184,2.96766493 4.10698785,3.28233507 3.69466146,3.69466146 C3.28233507,4.10698785 2.96766493,4.5844184 2.75065104,5.12695312 C2.6312934,5.44162326 2.53092448,5.82953559 2.44954427,6.2906901 C2.36816406,6.75184462 2.31391059,7.31065538 2.28678385,7.9671224 C2.25965712,8.62358941 2.24338108,9.14713542 2.23795573,9.53776042 C2.23253038,9.92838542 2.23253038,10.5007595 2.23795573,11.2548828 C2.24338108,12.0090061 2.24609375,12.4240451 2.24609375,12.5 C2.24609375,12.5759549 2.24338108,12.9909939 2.23795573,13.7451172 C2.23253038,14.4992405 2.23253038,15.0716146 2.23795573,15.4622396 C2.24338108,15.8528646 2.25965712,16.3764106 2.28678385,17.0328776 C2.31391059,17.6893446 2.36816406,18.2481554 2.44954427,18.7093099 C2.53092448,19.1704644 2.6312934,19.5583767 2.75065104,19.8730469 C2.96766493,20.4155816 3.28233507,20.8930122 3.69466146,21.3053385 C4.10698785,21.7176649 4.5844184,22.0323351 5.12695312,22.249349 C5.44162326,22.3687066 5.82953559,22.4690755 6.2906901,22.5504557 C6.75184462,22.6318359 7.31065538,22.6860894 7.9671224,22.7132161 C8.62358941,22.7403429 9.14713542,22.7566189 9.53776042,22.7620443 C9.92838542,22.7674696 10.5007595,22.7674696 11.2548828,22.7620443 C12.0090061,22.7566189 12.4240451,22.7539062 12.5,22.7539062 C12.5759549,22.7539062 12.9909939,22.7566189 13.7451172,22.7620443 C14.4992405,22.7674696 15.0716146,22.7674696 15.4622396,22.7620443 C15.8528646,22.7566189 16.3764106,22.7403429 17.0328776,22.7132161 C17.6893446,22.6860894 18.2481554,22.6318359 18.7093099,22.5504557 C19.1704644,22.4690755 19.5583767,22.3687066 19.8730469,22.249349 C20.4155816,22.0323351 20.8930122,21.7176649 21.3053385,21.3053385 C21.7176649,20.8930122 22.0323351,20.4155816 22.249349,19.8730469 C22.3687066,19.5583767 22.4690755,19.1704644 22.5504557,18.7093099 C22.6318359,18.2481554 22.6860894,17.6893446 22.7132161,17.0328776 C22.7403429,16.3764106 22.7566189,15.8528646 22.7620443,15.4622396 C22.7674696,15.0716146 22.7674696,14.4992405 22.7620443,13.7451172 C22.7566189,12.9909939 22.7539062,12.5759549 22.7539062,12.5 C22.7539062,12.4240451 22.7566189,12.0090061 22.7620443,11.2548828 C22.7674696,10.5007595 22.7674696,9.92838542 22.7620443,9.53776042 C22.7566189,9.14713542 22.7403429,8.62358941 22.7132161,7.9671224 C22.6860894,7.31065538 22.6318359,6.75184462 22.5504557,6.2906901 C22.4690755,5.82953559 22.3687066,5.44162326 22.249349,5.12695312 C22.0323351,4.5844184 21.7176649,4.10698785 21.3053385,3.69466146 C20.8930122,3.28233507 20.4155816,2.96766493 19.8730469,2.75065104 C19.5583767,2.6312934 19.1704644,2.53092448 18.7093099,2.44954427 C18.2481554,2.36816406 17.6893446,2.31391059 17.0328776,2.28678385 C16.3764106,2.25965712 15.8528646,2.24338108 15.4622396,2.23795573 C15.0716146,2.23253038 14.4992405,2.23253038 13.7451172,2.23795573 C12.9909939,2.24338108 12.5759549,2.24609375 12.5,2.24609375 Z M25,12.5 C25,14.984809 24.9728733,16.7046441 24.9186198,17.6595052 C24.8101128,19.9164497 24.1373698,21.6634115 22.9003906,22.9003906 C21.6634115,24.1373698 19.9164497,24.8101128 17.6595052,24.9186198 C16.7046441,24.9728733 14.984809,25 12.5,25 C10.015191,25 8.2953559,24.9728733 7.34049479,24.9186198 C5.08355035,24.8101128 3.33658854,24.1373698 2.09960938,22.9003906 C0.862630208,21.6634115 0.189887153,19.9164497 0.0813802083,17.6595052 C0.0271267361,16.7046441 0,14.984809 0,12.5 C0,10.015191 0.0271267361,8.2953559 0.0813802083,7.34049479 C0.189887153,5.08355035 0.862630208,3.33658854 2.09960938,2.09960938 C3.33658854,0.862630208 5.08355035,0.189887153 7.34049479,0.0813802083 C8.2953559,0.0271267361 10.015191,0 12.5,0 C14.984809,0 16.7046441,0.0271267361 17.6595052,0.0813802083 C19.9164497,0.189887153 21.6634115,0.862630208 22.9003906,2.09960938 C24.1373698,3.33658854 24.8101128,5.08355035 24.9186198,7.34049479 C24.9728733,8.2953559 25,10.015191 25,12.5 Z"></path>
</svg>