<svg width="25px" height="21px" viewBox="0 0 25 21" version="1.1" xmlns="http://www.w3.org/2000/svg" xmlns:xlink="http://www.w3.org/1999/xlink">
        <path d="M25,2.41116751 C24.2914552,3.44754653 23.4348562,4.33058376 22.430203,5.06027919 C22.4407783,5.20833333 22.446066,5.43041455 22.446066,5.72652284 C22.446066,7.10131134 22.2451354,8.47345601 21.8432741,9.84295685 C21.4414129,11.2124577 20.8306895,12.5264382 20.0111041,13.7848985 C19.1915186,15.0433587 18.2159475,16.1564086 17.0843909,17.1240482 C15.9528342,18.0916878 14.588621,18.8636844 12.9917513,19.4400381 C11.3948816,20.0163917 9.68697124,20.3045685 7.8680203,20.3045685 C5.00211506,20.3045685 2.37944162,19.5378596 0,18.0044416 C0.370135364,18.0467428 0.782571912,18.0678934 1.23730964,18.0678934 C3.61675127,18.0678934 5.73709814,17.338198 7.59835025,15.8788071 C6.48794416,15.8576565 5.49386633,15.5166032 4.61611675,14.8556472 C3.73836717,14.1946912 3.1355753,13.3513113 2.80774112,12.3255076 C3.15672589,12.3783841 3.47927242,12.4048223 3.77538071,12.4048223 C4.23011844,12.4048223 4.67956853,12.3466582 5.12373096,12.2303299 C3.9392978,11.9870981 2.95843909,11.3975254 2.18115482,10.4616117 C1.40387056,9.52569797 1.01522843,8.43908629 1.01522843,7.20177665 L1.01522843,7.13832487 C1.73434856,7.54018613 2.50634518,7.7569797 3.33121827,7.78870558 C2.63324873,7.32339255 2.07804569,6.71531303 1.66560914,5.96446701 C1.25317259,5.21362098 1.04695431,4.39932318 1.04695431,3.5215736 C1.04695431,2.59094755 1.27961083,1.72906091 1.74492386,0.935913706 C3.02453469,2.51163283 4.58174704,3.77273689 6.41656091,4.71922589 C8.25137479,5.66571489 10.215736,6.19183587 12.3096447,6.29758883 C12.2250423,5.89572758 12.1827411,5.50444162 12.1827411,5.12373096 C12.1827411,3.70664129 12.6824239,2.49841371 13.6817893,1.49904822 C14.6811548,0.499682741 15.8893824,0 17.3064721,0 C18.7870135,0 20.0348985,0.539340102 21.0501269,1.6180203 C22.2028342,1.39593909 23.286802,0.983502538 24.3020305,0.38071066 C23.9107445,1.59686971 23.1598985,2.53807107 22.0494924,3.20431472 C23.0329949,3.09856176 24.0164975,2.83417936 25,2.41116751 Z"></path>
</svg>